<svg xmlns="http://www.w3.org/2000/svg" version="1.1" xmlns:xlink="http://www.w3.org/1999/xlink" xmlns:svgjs="http://svgjs.com/svgjs" width="1440" height="560" preserveAspectRatio="none" viewBox="0 0 1440 560"><g mask="url(&quot;#SvgjsMask1114&quot;)" fill="none"><path d="M1028.22 312.92 a103.91 103.91 0 1 0 207.82 0 a103.91 103.91 0 1 0 -207.82 0z" fill="rgba(28, 83, 142, 0.4)" class="triangle-float2"></path><path d="M194.5692481619713 255.7950295821232L168.67453133576907 188.33698594484127 80.43482429294728 260.90808300278553z" fill="rgba(28, 83, 142, 0.4)" class="triangle-float2"></path><path d="M621.6535464003156-15.496286866412385L529.4770218754151-26.8141409557581 518.1591677860694 65.36238356914238 610.3356923109699 76.6802376584881z" fill="rgba(28, 83, 142, 0.4)" class="triangle-float1"></path><path d="M1026.92 312.81 a159.16 159.16 0 1 0 318.32 0 a159.16 159.16 0 1 0 -318.32 0z" fill="rgba(28, 83, 142, 0.4)" class="triangle-float1"></path><path d="M744.32 80.08 a181.41 181.41 0 1 0 362.82 0 a181.41 181.41 0 1 0 -362.82 0z" fill="rgba(28, 83, 142, 0.4)" class="triangle-float3"></path><path d="M771.415,350.164C823.379,351.267,862.228,308.619,888.447,263.741C914.965,218.351,930.563,164.87,907.17,117.793C881.313,65.757,829.444,25.224,771.415,28.224C716.877,31.043,681.253,81.276,657.973,130.676C638.424,172.158,641.627,218.211,662.683,258.949C685.964,303.993,720.721,349.088,771.415,350.164" fill="rgba(28, 83, 142, 0.4)" class="triangle-float3"></path><path d="M329.01947524633357 179.52067831316435L486.7895517315849 128.42425356647524 380.766307898395 29.5559792107739z" fill="rgba(28, 83, 142, 0.4)" class="triangle-float2"></path><path d="M390.636,724.658C433.596,722.24,466.397,690.745,487.705,653.363C508.763,616.42,520.378,571.514,498.821,534.86C477.491,498.591,432.709,487.778,390.636,488.314C349.685,488.835,309.828,503.474,287.12,537.556C261.618,575.83,250.335,625.225,272.6,665.468C295.438,706.747,343.536,727.309,390.636,724.658" fill="rgba(28, 83, 142, 0.4)" class="triangle-float2"></path><path d="M1440.6820745419843 106.98958047364125L1351.5600647951214 150.45728898567057 1484.1497830540136 196.11159022050407z" fill="rgba(28, 83, 142, 0.4)" class="triangle-float1"></path><path d="M1299.8044422866606 111.25671025535885L1416.2450740782447 170.72602357602506 1412.256262270251 56.50139834443736z" fill="rgba(28, 83, 142, 0.4)" class="triangle-float2"></path><path d="M796.4187916185252 473.76389628638026L897.46511508318 450.5369241508606 836.8191783012313 383.1827877872885z" fill="rgba(28, 83, 142, 0.4)" class="triangle-float3"></path><path d="M478.61175720394436 195.0345176091405L529.0868711603717 269.8669514421723 603.9193049934036 219.39183748574493 553.4441910369761 144.55940365271312z" fill="rgba(28, 83, 142, 0.4)" class="triangle-float3"></path><path d="M251.99282842809058 481.8374746214253L222.1167108459054 592.9131252375654 319.67853151671363 568.5882313359682z" fill="rgba(28, 83, 142, 0.4)" class="triangle-float2"></path><path d="M647.87 539.52 a181.92 181.92 0 1 0 363.84 0 a181.92 181.92 0 1 0 -363.84 0z" fill="rgba(28, 83, 142, 0.4)" class="triangle-float2"></path></g><defs><mask id="SvgjsMask1114"><rect width="1440" height="560" fill="#ffffff"></rect></mask><style>
            @keyframes float1 {
                0%{transform: translate(0, 0)}
                50%{transform: translate(-10px, 0)}
                100%{transform: translate(0, 0)}
            }

            .triangle-float1 {
                animation: float1 5s infinite;
            }

            @keyframes float2 {
                0%{transform: translate(0, 0)}
                50%{transform: translate(-5px, -5px)}
                100%{transform: translate(0, 0)}
            }

            .triangle-float2 {
                animation: float2 4s infinite;
            }

            @keyframes float3 {
                0%{transform: translate(0, 0)}
                50%{transform: translate(0, -10px)}
                100%{transform: translate(0, 0)}
            }

            .triangle-float3 {
                animation: float3 6s infinite;
            }
        </style></defs></svg>